<svg width="38" height="60" viewBox="0 0 38 60" fill="none" xmlns="http://www.w3.org/2000/svg">
<path fill-rule="evenodd" clip-rule="evenodd" d="M20.5578 16.5343C19.6873 15.6989 18.3127 15.6989 17.4422 16.5343L12.8157 20.9736C12.7024 21.0824 12.6261 21.2241 12.5978 21.3786C12.0437 24.4004 12.0028 27.4941 12.4768 30.5295L12.5893 31.25H15.5658V25.0387C15.5658 24.6245 15.9016 24.2887 16.3158 24.2887H21.6842C22.0984 24.2887 22.4342 24.6245 22.4342 25.0387V31.25H25.4107L25.5232 30.5295C25.9972 27.4941 25.9563 24.4004 25.4022 21.3786C25.3739 21.2241 25.2976 21.0824 25.1843 20.9736L20.5578 16.5343ZM16.4036 15.4519C17.8546 14.0597 20.1454 14.0597 21.5964 15.4519L26.2228 19.8913C26.5634 20.2181 26.7925 20.6438 26.8776 21.108C27.4621 24.2956 27.5053 27.559 27.0052 30.761L26.8245 31.9184C26.7497 32.3971 26.3374 32.75 25.8529 32.75H21.6842C21.27 32.75 20.9342 32.4142 20.9342 32V25.7887H17.0658V32C17.0658 32.4142 16.73 32.75 16.3158 32.75H12.1471C11.6626 32.75 11.2503 32.3971 11.1755 31.9184L10.9948 30.761C10.4947 27.559 10.5379 24.2956 11.1224 21.108C11.2075 20.6438 11.4366 20.2181 11.7772 19.8913L16.4036 15.4519Z" fill="#807E81"/>
<path d="M5.30273 38.8906V40.0381H2.09961V46H0.639648V38.8906H5.30273ZM8.49609 40.7168V41.8203H5.89844V40.7168H8.49609ZM9.52637 40.7168V46H8.12012V40.7168H9.52637ZM5.54688 40.7168H6.92871L6.78711 43.3828C6.76758 43.7637 6.72689 44.099 6.66504 44.3887C6.60319 44.6784 6.52018 44.9258 6.41602 45.1309C6.3151 45.3359 6.19303 45.5036 6.0498 45.6338C5.90983 45.7607 5.74544 45.8535 5.55664 45.9121C5.37109 45.9707 5.16602 46 4.94141 46H4.51172L4.49707 44.8916L4.67773 44.8721C4.7819 44.8623 4.87305 44.833 4.95117 44.7842C5.03255 44.7321 5.10091 44.6589 5.15625 44.5645C5.21484 44.4668 5.26367 44.3447 5.30273 44.1982C5.3418 44.0485 5.37272 43.8727 5.39551 43.6709C5.42155 43.4691 5.43945 43.2363 5.44922 42.9727L5.54688 40.7168ZM13.4668 44.8086V42.4551C13.4668 42.2858 13.4391 42.141 13.3838 42.0205C13.3285 41.8968 13.2422 41.8008 13.125 41.7324C13.0111 41.6641 12.863 41.6299 12.6807 41.6299C12.5244 41.6299 12.3893 41.6576 12.2754 41.7129C12.1615 41.765 12.0736 41.8415 12.0117 41.9424C11.9499 42.04 11.9189 42.1556 11.9189 42.2891H10.5127C10.5127 42.0645 10.5648 41.8512 10.6689 41.6494C10.7731 41.4476 10.9245 41.2702 11.123 41.1172C11.3216 40.9609 11.5576 40.8389 11.8311 40.751C12.1077 40.6631 12.417 40.6191 12.7588 40.6191C13.1689 40.6191 13.5335 40.6875 13.8525 40.8242C14.1715 40.9609 14.4222 41.166 14.6045 41.4395C14.79 41.7129 14.8828 42.0547 14.8828 42.4648V44.7256C14.8828 45.0153 14.9007 45.2529 14.9365 45.4385C14.9723 45.6208 15.0244 45.7803 15.0928 45.917V46H13.6719C13.6035 45.8568 13.5514 45.6777 13.5156 45.4629C13.4831 45.2448 13.4668 45.0267 13.4668 44.8086ZM13.6523 42.7822L13.6621 43.5781H12.876C12.6904 43.5781 12.5293 43.5993 12.3926 43.6416C12.2559 43.6839 12.1436 43.7441 12.0557 43.8223C11.9678 43.8971 11.9027 43.985 11.8604 44.0859C11.8213 44.1868 11.8018 44.2975 11.8018 44.418C11.8018 44.5384 11.8294 44.6475 11.8848 44.7451C11.9401 44.8395 12.0199 44.9144 12.124 44.9697C12.2282 45.0218 12.3503 45.0479 12.4902 45.0479C12.7018 45.0479 12.8857 45.0055 13.042 44.9209C13.1982 44.8363 13.3187 44.7321 13.4033 44.6084C13.4912 44.4847 13.5368 44.3675 13.54 44.2568L13.9111 44.8525C13.859 44.986 13.7874 45.1243 13.6963 45.2676C13.6084 45.4108 13.4961 45.5459 13.3594 45.6729C13.2227 45.7965 13.0583 45.8991 12.8662 45.9805C12.6742 46.0586 12.4463 46.0977 12.1826 46.0977C11.8473 46.0977 11.543 46.0309 11.2695 45.8975C10.9993 45.7607 10.7845 45.5736 10.625 45.3359C10.4688 45.0951 10.3906 44.8216 10.3906 44.5156C10.3906 44.2389 10.4427 43.9932 10.5469 43.7783C10.651 43.5635 10.804 43.3828 11.0059 43.2363C11.2109 43.0866 11.4665 42.9743 11.7725 42.8994C12.0785 42.8213 12.4333 42.7822 12.8369 42.7822H13.6523ZM18.5986 43.793H16.9434L16.9336 42.8701H18.3008C18.4831 42.8701 18.6312 42.8522 18.7451 42.8164C18.859 42.7773 18.9421 42.7204 18.9941 42.6455C19.0495 42.5674 19.0771 42.473 19.0771 42.3623C19.0771 42.2646 19.0592 42.1816 19.0234 42.1133C18.9909 42.0417 18.9404 41.9831 18.8721 41.9375C18.8037 41.8919 18.7174 41.8594 18.6133 41.8398C18.5124 41.8171 18.3936 41.8057 18.2568 41.8057H17.4658V46H16.0596V40.7168H18.2568C18.6019 40.7168 18.9111 40.7477 19.1846 40.8096C19.458 40.8682 19.6908 40.9577 19.8828 41.0781C20.0781 41.1986 20.2262 41.3516 20.3271 41.5371C20.4313 41.7194 20.4834 41.9359 20.4834 42.1865C20.4834 42.3493 20.446 42.5023 20.3711 42.6455C20.2995 42.7887 20.1921 42.9157 20.0488 43.0264C19.9056 43.137 19.7282 43.2282 19.5166 43.2998C19.3083 43.3682 19.0674 43.4105 18.7939 43.4268L18.5986 43.793ZM18.5986 46H16.5967L17.0801 44.9111H18.5986C18.7712 44.9111 18.9128 44.89 19.0234 44.8477C19.1341 44.8053 19.2155 44.7435 19.2676 44.6621C19.3229 44.5775 19.3506 44.4766 19.3506 44.3594C19.3506 44.2454 19.3262 44.1462 19.2773 44.0615C19.2285 43.9769 19.1488 43.9118 19.0381 43.8662C18.9307 43.8174 18.7842 43.793 18.5986 43.793H17.2852L17.2949 42.8701H18.7891L19.1309 43.2412C19.502 43.264 19.8079 43.334 20.0488 43.4512C20.2897 43.5684 20.4671 43.7181 20.5811 43.9004C20.6982 44.0794 20.7568 44.2764 20.7568 44.4912C20.7568 44.7419 20.7096 44.9616 20.6152 45.1504C20.5208 45.3392 20.3809 45.4971 20.1953 45.624C20.013 45.7477 19.7884 45.8421 19.5215 45.9072C19.2546 45.9691 18.9469 46 18.5986 46ZM25.2393 42.8506V43.9443H22.5537V42.8506H25.2393ZM23.0225 40.7168V46H21.6162V40.7168H23.0225ZM26.1914 40.7168V46H24.7803V40.7168H26.1914ZM30.1367 44.8086V42.4551C30.1367 42.2858 30.109 42.141 30.0537 42.0205C29.9984 41.8968 29.9121 41.8008 29.7949 41.7324C29.681 41.6641 29.5329 41.6299 29.3506 41.6299C29.1943 41.6299 29.0592 41.6576 28.9453 41.7129C28.8314 41.765 28.7435 41.8415 28.6816 41.9424C28.6198 42.04 28.5889 42.1556 28.5889 42.2891H27.1826C27.1826 42.0645 27.2347 41.8512 27.3389 41.6494C27.443 41.4476 27.5944 41.2702 27.793 41.1172C27.9915 40.9609 28.2275 40.8389 28.501 40.751C28.7777 40.6631 29.0869 40.6191 29.4287 40.6191C29.8389 40.6191 30.2035 40.6875 30.5225 40.8242C30.8415 40.9609 31.0921 41.166 31.2744 41.4395C31.46 41.7129 31.5527 42.0547 31.5527 42.4648V44.7256C31.5527 45.0153 31.5706 45.2529 31.6064 45.4385C31.6423 45.6208 31.6943 45.7803 31.7627 45.917V46H30.3418C30.2734 45.8568 30.2214 45.6777 30.1855 45.4629C30.153 45.2448 30.1367 45.0267 30.1367 44.8086ZM30.3223 42.7822L30.332 43.5781H29.5459C29.3604 43.5781 29.1992 43.5993 29.0625 43.6416C28.9258 43.6839 28.8135 43.7441 28.7256 43.8223C28.6377 43.8971 28.5726 43.985 28.5303 44.0859C28.4912 44.1868 28.4717 44.2975 28.4717 44.418C28.4717 44.5384 28.4993 44.6475 28.5547 44.7451C28.61 44.8395 28.6898 44.9144 28.7939 44.9697C28.8981 45.0218 29.0202 45.0479 29.1602 45.0479C29.3717 45.0479 29.5557 45.0055 29.7119 44.9209C29.8682 44.8363 29.9886 44.7321 30.0732 44.6084C30.1611 44.4847 30.2067 44.3675 30.21 44.2568L30.5811 44.8525C30.529 44.986 30.4574 45.1243 30.3662 45.2676C30.2783 45.4108 30.166 45.5459 30.0293 45.6729C29.8926 45.7965 29.7282 45.8991 29.5361 45.9805C29.3441 46.0586 29.1162 46.0977 28.8525 46.0977C28.5173 46.0977 28.2129 46.0309 27.9395 45.8975C27.6693 45.7607 27.4544 45.5736 27.2949 45.3359C27.1387 45.0951 27.0605 44.8216 27.0605 44.5156C27.0605 44.2389 27.1126 43.9932 27.2168 43.7783C27.321 43.5635 27.474 43.3828 27.6758 43.2363C27.8809 43.0866 28.1364 42.9743 28.4424 42.8994C28.7484 42.8213 29.1032 42.7822 29.5068 42.7822H30.3223ZM33.7744 43.3633H35.2002L33.7305 46H32.3096L33.7744 43.3633ZM34.7217 40.7168H37.041V46H35.6348V41.8057H34.7217C34.5296 41.8057 34.3701 41.8415 34.2432 41.9131C34.1162 41.9814 34.0218 42.071 33.96 42.1816C33.9014 42.2891 33.8721 42.3997 33.8721 42.5137C33.8721 42.6243 33.9014 42.7318 33.96 42.8359C34.0186 42.9401 34.1097 43.0264 34.2334 43.0947C34.3571 43.1631 34.5117 43.1973 34.6973 43.1973H36.1572V44.1543H34.6973C34.349 44.1543 34.0365 44.112 33.7598 44.0273C33.4863 43.9427 33.252 43.8255 33.0566 43.6758C32.8646 43.5228 32.7165 43.3454 32.6123 43.1436C32.5114 42.9385 32.4609 42.7139 32.4609 42.4697C32.4609 42.2158 32.513 41.9831 32.6172 41.7715C32.7214 41.5599 32.8711 41.3743 33.0664 41.2148C33.2617 41.0553 33.4977 40.9333 33.7744 40.8486C34.0544 40.7607 34.3701 40.7168 34.7217 40.7168Z" fill="#807E81"/>
</svg>
