<svg width="47" height="60" viewBox="0 0 47 60" fill="none" xmlns="http://www.w3.org/2000/svg">
<path d="M19.5 20.5C18.8096 20.5 18.25 21.0597 18.25 21.75C18.25 22.4404 18.8096 23 19.5 23C20.1904 23 20.75 22.4404 20.75 21.75C20.75 21.0597 20.1904 20.5 19.5 20.5Z" fill="#807E81"/>
<path d="M23.5 20.5C22.8096 20.5 22.25 21.0597 22.25 21.75C22.25 22.4404 22.8096 23 23.5 23C24.1904 23 24.75 22.4404 24.75 21.75C24.75 21.0597 24.1904 20.5 23.5 20.5Z" fill="#807E81"/>
<path d="M26.25 21.75C26.25 21.0597 26.8096 20.5 27.5 20.5C28.1904 20.5 28.75 21.0597 28.75 21.75C28.75 22.4404 28.1904 23 27.5 23C26.8096 23 26.25 22.4404 26.25 21.75Z" fill="#807E81"/>
<path fill-rule="evenodd" clip-rule="evenodd" d="M27.6007 15.5928C24.9065 15.363 22.1983 15.3497 19.5019 15.5529L19.3087 15.5675C16.7374 15.7613 14.75 17.9041 14.75 20.4827V29C14.75 29.2639 14.8887 29.5083 15.1151 29.6437C15.3416 29.7791 15.6226 29.7856 15.855 29.6607L19.7658 27.5589C19.9477 27.4612 20.151 27.41 20.3576 27.41H29.334C30.4661 27.41 31.4362 26.6006 31.6392 25.4869C32.0505 23.2296 32.0829 20.9197 31.7353 18.6518L31.6329 17.9834C31.4464 16.7667 30.451 15.8359 29.2245 15.7313L27.6007 15.5928ZM19.6147 17.0487C22.231 16.8515 24.859 16.8644 27.4733 17.0874L29.097 17.2258C29.6334 17.2716 30.0686 17.6786 30.1502 18.2107L30.2526 18.879C30.575 20.9823 30.5449 23.1246 30.1635 25.218C30.0904 25.6188 29.7413 25.91 29.334 25.91H20.3576C19.9032 25.91 19.456 26.0226 19.0558 26.2377L16.25 27.7455V20.4827C16.25 18.6888 17.6326 17.1981 19.4214 17.0632L19.6147 17.0487Z" fill="#807E81"/>
<path d="M2.03613 38.8906V46H0.693359V38.8906H2.03613ZM6.26953 38.8906L3.46191 43.002H1.69922L1.52344 41.8203H2.73438L4.63379 38.8906H6.26953ZM4.8877 46L2.74414 42.7871L3.64746 41.7959L6.49414 46H4.8877ZM6.66992 43.4121V43.3096C6.66992 42.9222 6.72526 42.5658 6.83594 42.2402C6.94661 41.9115 7.10775 41.6266 7.31934 41.3857C7.53092 41.1449 7.78971 40.9577 8.0957 40.8242C8.40169 40.6875 8.75 40.6191 9.14062 40.6191C9.53776 40.6191 9.88932 40.6875 10.1953 40.8242C10.5046 40.9577 10.765 41.1449 10.9766 41.3857C11.1882 41.6266 11.3493 41.9115 11.46 42.2402C11.5706 42.5658 11.626 42.9222 11.626 43.3096V43.4121C11.626 43.7962 11.5706 44.1527 11.46 44.4814C11.3493 44.807 11.1882 45.0918 10.9766 45.3359C10.765 45.5768 10.5062 45.764 10.2002 45.8975C9.89421 46.0309 9.54427 46.0977 9.15039 46.0977C8.75977 46.0977 8.40983 46.0309 8.10059 45.8975C7.79134 45.764 7.53092 45.5768 7.31934 45.3359C7.10775 45.0918 6.94661 44.807 6.83594 44.4814C6.72526 44.1527 6.66992 43.7962 6.66992 43.4121ZM7.95898 43.3096V43.4121C7.95898 43.6432 7.98177 43.8597 8.02734 44.0615C8.07292 44.2633 8.1429 44.4408 8.2373 44.5938C8.33171 44.7467 8.45378 44.8672 8.60352 44.9551C8.75651 45.0397 8.9388 45.082 9.15039 45.082C9.35872 45.082 9.53776 45.0397 9.6875 44.9551C9.83724 44.8672 9.95931 44.7467 10.0537 44.5938C10.1514 44.4408 10.223 44.2633 10.2686 44.0615C10.3141 43.8597 10.3369 43.6432 10.3369 43.4121V43.3096C10.3369 43.0817 10.3141 42.8685 10.2686 42.6699C10.223 42.4681 10.1514 42.2907 10.0537 42.1377C9.95931 41.9814 9.83561 41.8594 9.68262 41.7715C9.53288 41.6803 9.35221 41.6348 9.14062 41.6348C8.93229 41.6348 8.75326 41.6803 8.60352 41.7715C8.45378 41.8594 8.33171 41.9814 8.2373 42.1377C8.1429 42.2907 8.07292 42.4681 8.02734 42.6699C7.98177 42.8685 7.95898 43.0817 7.95898 43.3096ZM16.1719 42.8848V43.8955H13.4619V42.8848H16.1719ZM13.8672 40.7168V46H12.5732V40.7168H13.8672ZM17.0752 40.7168V46H15.7764V40.7168H17.0752ZM20.8105 40.7168V46H19.5166V40.7168H20.8105ZM22.5293 40.7168V41.7227H17.8271V40.7168H22.5293ZM26.1182 44.877V42.4404C26.1182 42.2614 26.0872 42.1068 26.0254 41.9766C25.9635 41.8464 25.8691 41.7454 25.7422 41.6738C25.6152 41.6022 25.4541 41.5664 25.2588 41.5664C25.0863 41.5664 24.9349 41.5957 24.8047 41.6543C24.6777 41.7129 24.5801 41.7959 24.5117 41.9033C24.4434 42.0075 24.4092 42.1279 24.4092 42.2646H23.1152C23.1152 42.0465 23.1673 41.8398 23.2715 41.6445C23.3757 41.446 23.5238 41.2702 23.7158 41.1172C23.9111 40.9609 24.1439 40.8389 24.4141 40.751C24.6875 40.6631 24.9935 40.6191 25.332 40.6191C25.7324 40.6191 26.0889 40.6875 26.4014 40.8242C26.7171 40.9577 26.9645 41.1595 27.1436 41.4297C27.3258 41.6999 27.417 42.04 27.417 42.4502V44.7549C27.417 45.0186 27.4333 45.2448 27.4658 45.4336C27.5016 45.6191 27.5537 45.7803 27.6221 45.917V46H26.3086C26.2467 45.8665 26.1995 45.6973 26.167 45.4922C26.1344 45.2839 26.1182 45.0788 26.1182 44.877ZM26.2988 42.7822L26.3086 43.5488H25.4932C25.2913 43.5488 25.1139 43.57 24.9609 43.6123C24.8079 43.6514 24.6826 43.71 24.585 43.7881C24.4873 43.863 24.4141 43.9541 24.3652 44.0615C24.3164 44.1657 24.292 44.2845 24.292 44.418C24.292 44.5482 24.3213 44.6654 24.3799 44.7695C24.4417 44.8737 24.5296 44.9567 24.6436 45.0186C24.7607 45.0771 24.8975 45.1064 25.0537 45.1064C25.2816 45.1064 25.4801 45.0609 25.6494 44.9697C25.8187 44.8753 25.9505 44.7614 26.0449 44.6279C26.1393 44.4945 26.1898 44.3675 26.1963 44.2471L26.5674 44.8037C26.5218 44.9372 26.4535 45.0788 26.3623 45.2285C26.2712 45.3783 26.154 45.5182 26.0107 45.6484C25.8675 45.7786 25.695 45.8861 25.4932 45.9707C25.2913 46.0553 25.057 46.0977 24.79 46.0977C24.4482 46.0977 24.1423 46.0293 23.8721 45.8926C23.6019 45.7559 23.3887 45.5687 23.2324 45.3311C23.0762 45.0934 22.998 44.8232 22.998 44.5205C22.998 44.2406 23.0501 43.9932 23.1543 43.7783C23.2585 43.5635 23.4131 43.3828 23.6182 43.2363C23.8232 43.0866 24.0771 42.9743 24.3799 42.8994C24.6859 42.8213 25.0358 42.7822 25.4297 42.7822H26.2988ZM29.9561 40.7168V46H28.667V40.7168H29.9561ZM33.3984 40.7168L31.0693 43.959H29.6973L29.5361 42.7773H30.4883L31.7725 40.7168H33.3984ZM31.8506 46L30.4053 43.7344L31.4795 43.0605L33.5645 46H31.8506ZM36.7188 40.7168V46H35.4248V40.7168H36.7188ZM38.4375 40.7168V41.7227H33.7354V40.7168H38.4375ZM40.1123 42.3428H41.6553C42.124 42.3428 42.5228 42.4209 42.8516 42.5771C43.1836 42.7301 43.4359 42.945 43.6084 43.2217C43.7842 43.4951 43.8721 43.8125 43.8721 44.1738C43.8721 44.4342 43.8216 44.6768 43.7207 44.9014C43.623 45.1227 43.4798 45.3164 43.291 45.4824C43.1022 45.6452 42.8695 45.7721 42.5928 45.8633C42.3193 45.9544 42.0068 46 41.6553 46H39.2822V40.7168H40.5762V44.9893H41.6553C41.8799 44.9893 42.0589 44.9518 42.1924 44.877C42.3291 44.7988 42.4268 44.6995 42.4854 44.5791C42.5472 44.4554 42.5781 44.3236 42.5781 44.1836C42.5781 44.0404 42.5472 43.9069 42.4854 43.7832C42.4268 43.6562 42.3291 43.5537 42.1924 43.4756C42.0589 43.3975 41.8799 43.3584 41.6553 43.3584H40.1123V42.3428ZM46.04 40.7168V46H44.7461V40.7168H46.04Z" fill="#807E81"/>
</svg>
