<svg width="43" height="60" viewBox="0 0 43 60" fill="none" xmlns="http://www.w3.org/2000/svg">
<path fill-rule="evenodd" clip-rule="evenodd" d="M17.25 18.5C17.25 16.1528 19.1528 14.25 21.5 14.25C23.8472 14.25 25.75 16.1528 25.75 18.5C25.75 20.8472 23.8472 22.75 21.5 22.75C19.1528 22.75 17.25 20.8472 17.25 18.5ZM21.5 15.75C19.9812 15.75 18.75 16.9812 18.75 18.5C18.75 20.0188 19.9812 21.25 21.5 21.25C23.0188 21.25 24.25 20.0188 24.25 18.5C24.25 16.9812 23.0188 15.75 21.5 15.75Z" fill="#807E81"/>
<path fill-rule="evenodd" clip-rule="evenodd" d="M17.5 25.75C16.2574 25.75 15.25 26.7574 15.25 28V29.1883C15.25 29.2064 15.2631 29.2218 15.281 29.2247C19.3997 29.8972 23.6003 29.8972 27.719 29.2247C27.7369 29.2218 27.75 29.2064 27.75 29.1883V28C27.75 26.7574 26.7426 25.75 25.5 25.75H25.1591C25.1328 25.75 25.1066 25.7542 25.0815 25.7623L24.216 26.045C22.4512 26.6212 20.5488 26.6212 18.784 26.045L17.9185 25.7623C17.8934 25.7542 17.8672 25.75 17.8409 25.75H17.5ZM13.75 28C13.75 25.9289 15.4289 24.25 17.5 24.25H17.8409C18.0254 24.25 18.2087 24.2792 18.3841 24.3364L19.2496 24.6191C20.7119 25.0965 22.2881 25.0965 23.7504 24.6191L24.6159 24.3364C24.7913 24.2792 24.9746 24.25 25.1591 24.25H25.5C27.5711 24.25 29.25 25.9289 29.25 28V29.1883C29.25 29.9415 28.7041 30.5837 27.9607 30.7051C23.6819 31.4037 19.3181 31.4037 15.0393 30.7051C14.2959 30.5837 13.75 29.9415 13.75 29.1883V28Z" fill="#807E81"/>
<path d="M6.38672 38.8906V46H5.04395V39.9502H2.03613V46H0.693359V38.8906H6.38672ZM8.95996 41.7324V48.0312H7.66602V40.7168H8.8623L8.95996 41.7324ZM12.3535 43.3047V43.4072C12.3535 43.7913 12.3079 44.1478 12.2168 44.4766C12.1289 44.8021 11.9987 45.0869 11.8262 45.3311C11.6536 45.5719 11.4388 45.7607 11.1816 45.8975C10.9277 46.0309 10.6348 46.0977 10.3027 46.0977C9.97721 46.0977 9.69401 46.0358 9.45312 45.9121C9.21224 45.7852 9.00879 45.6061 8.84277 45.375C8.67676 45.1439 8.54329 44.8753 8.44238 44.5693C8.34473 44.2601 8.27148 43.9232 8.22266 43.5586V43.2314C8.27148 42.8441 8.34473 42.4925 8.44238 42.1768C8.54329 41.8577 8.67676 41.5827 8.84277 41.3516C9.00879 41.1172 9.21061 40.9365 9.44824 40.8096C9.68913 40.6826 9.9707 40.6191 10.293 40.6191C10.6283 40.6191 10.9229 40.6826 11.1768 40.8096C11.4339 40.9365 11.6504 41.1188 11.8262 41.3564C12.002 41.5941 12.1338 41.8773 12.2217 42.2061C12.3096 42.5348 12.3535 42.901 12.3535 43.3047ZM11.0596 43.4072V43.3047C11.0596 43.0703 11.0384 42.8538 10.9961 42.6553C10.9538 42.4535 10.8887 42.2777 10.8008 42.1279C10.7129 41.9749 10.599 41.8561 10.459 41.7715C10.319 41.6868 10.1497 41.6445 9.95117 41.6445C9.7526 41.6445 9.58171 41.6771 9.43848 41.7422C9.29525 41.8073 9.17806 41.9001 9.08691 42.0205C8.99577 42.141 8.92415 42.2842 8.87207 42.4502C8.82324 42.613 8.79069 42.7936 8.77441 42.9922V43.8027C8.80371 44.0436 8.86068 44.2601 8.94531 44.4521C9.02995 44.6442 9.15365 44.7972 9.31641 44.9111C9.48242 45.0251 9.69727 45.082 9.96094 45.082C10.1595 45.082 10.3288 45.0381 10.4688 44.9502C10.6087 44.8623 10.7227 44.7419 10.8105 44.5889C10.8984 44.4326 10.9619 44.2536 11.001 44.0518C11.04 43.8499 11.0596 43.6351 11.0596 43.4072ZM13.0664 43.4121V43.3096C13.0664 42.9222 13.1217 42.5658 13.2324 42.2402C13.3431 41.9115 13.5042 41.6266 13.7158 41.3857C13.9274 41.1449 14.1862 40.9577 14.4922 40.8242C14.7982 40.6875 15.1465 40.6191 15.5371 40.6191C15.9342 40.6191 16.2858 40.6875 16.5918 40.8242C16.901 40.9577 17.1615 41.1449 17.373 41.3857C17.5846 41.6266 17.7458 41.9115 17.8564 42.2402C17.9671 42.5658 18.0225 42.9222 18.0225 43.3096V43.4121C18.0225 43.7962 17.9671 44.1527 17.8564 44.4814C17.7458 44.807 17.5846 45.0918 17.373 45.3359C17.1615 45.5768 16.9027 45.764 16.5967 45.8975C16.2907 46.0309 15.9408 46.0977 15.5469 46.0977C15.1562 46.0977 14.8063 46.0309 14.4971 45.8975C14.1878 45.764 13.9274 45.5768 13.7158 45.3359C13.5042 45.0918 13.3431 44.807 13.2324 44.4814C13.1217 44.1527 13.0664 43.7962 13.0664 43.4121ZM14.3555 43.3096V43.4121C14.3555 43.6432 14.3783 43.8597 14.4238 44.0615C14.4694 44.2633 14.5394 44.4408 14.6338 44.5938C14.7282 44.7467 14.8503 44.8672 15 44.9551C15.153 45.0397 15.3353 45.082 15.5469 45.082C15.7552 45.082 15.9342 45.0397 16.084 44.9551C16.2337 44.8672 16.3558 44.7467 16.4502 44.5938C16.5479 44.4408 16.6195 44.2633 16.665 44.0615C16.7106 43.8597 16.7334 43.6432 16.7334 43.4121V43.3096C16.7334 43.0817 16.7106 42.8685 16.665 42.6699C16.6195 42.4681 16.5479 42.2907 16.4502 42.1377C16.3558 41.9814 16.2321 41.8594 16.0791 41.7715C15.9294 41.6803 15.7487 41.6348 15.5371 41.6348C15.3288 41.6348 15.1497 41.6803 15 41.7715C14.8503 41.8594 14.7282 41.9814 14.6338 42.1377C14.5394 42.2907 14.4694 42.4681 14.4238 42.6699C14.3783 42.8685 14.3555 43.0817 14.3555 43.3096ZM25.3076 43.4072V43.5098C25.3076 43.8874 25.2653 44.234 25.1807 44.5498C25.0993 44.8656 24.9756 45.139 24.8096 45.3701C24.6468 45.6012 24.445 45.7803 24.2041 45.9072C23.9632 46.0342 23.6849 46.0977 23.3691 46.0977C23.0859 46.0977 22.8385 46.0472 22.627 45.9463C22.4186 45.8421 22.2428 45.6973 22.0996 45.5117C21.9596 45.3229 21.8457 45.1032 21.7578 44.8525C21.6732 44.5986 21.6097 44.3236 21.5674 44.0273V42.8359C21.6097 42.5169 21.6732 42.224 21.7578 41.957C21.8424 41.6868 21.9564 41.4525 22.0996 41.2539C22.2428 41.0521 22.417 40.8958 22.6221 40.7852C22.8304 40.6745 23.0762 40.6191 23.3594 40.6191C23.6165 40.6191 23.8477 40.6631 24.0527 40.751C24.2578 40.8389 24.4385 40.9658 24.5947 41.1318C24.751 41.2946 24.8812 41.4915 24.9854 41.7227C25.0928 41.9505 25.1725 42.2077 25.2246 42.4941C25.2799 42.7773 25.3076 43.0817 25.3076 43.4072ZM24.0137 43.5098V43.4072C24.0137 43.2152 24.0023 43.0312 23.9795 42.8555C23.9567 42.6764 23.9209 42.5137 23.8721 42.3672C23.8232 42.2207 23.7598 42.0921 23.6816 41.9814C23.6035 41.8708 23.5091 41.7861 23.3984 41.7275C23.2878 41.6657 23.1608 41.6348 23.0176 41.6348C22.7962 41.6348 22.6139 41.6755 22.4707 41.7568C22.3307 41.8382 22.2249 41.9505 22.1533 42.0938C22.085 42.237 22.0443 42.4046 22.0312 42.5967V44.2715C22.0475 44.4342 22.0915 44.5758 22.1631 44.6963C22.2347 44.8167 22.3405 44.9111 22.4805 44.9795C22.6237 45.0479 22.806 45.082 23.0273 45.082C23.2064 45.082 23.3577 45.043 23.4814 44.9648C23.6084 44.8835 23.7109 44.7728 23.7891 44.6328C23.8672 44.4896 23.9242 44.3236 23.96 44.1348C23.9958 43.9427 24.0137 43.7344 24.0137 43.5098ZM18.7451 43.5098V43.4072C18.7451 43.0817 18.7712 42.7773 18.8232 42.4941C18.8786 42.2077 18.96 41.9505 19.0674 41.7227C19.1748 41.4915 19.3066 41.2946 19.4629 41.1318C19.6191 40.9658 19.7998 40.8389 20.0049 40.751C20.21 40.6631 20.4395 40.6191 20.6934 40.6191C20.9766 40.6191 21.2207 40.6745 21.4258 40.7852C21.6309 40.8958 21.8034 41.0521 21.9434 41.2539C22.0833 41.4525 22.1956 41.6868 22.2803 41.957C22.3649 42.224 22.43 42.5169 22.4756 42.8359V43.9785C22.4333 44.2812 22.3682 44.5628 22.2803 44.8232C22.1956 45.0804 22.0817 45.305 21.9385 45.4971C21.7985 45.6891 21.626 45.8372 21.4209 45.9414C21.2158 46.0456 20.9701 46.0977 20.6836 46.0977C20.3711 46.0977 20.0944 46.0342 19.8535 45.9072C19.6126 45.7803 19.4092 45.6012 19.2432 45.3701C19.0804 45.139 18.9567 44.8656 18.8721 44.5498C18.7874 44.234 18.7451 43.8874 18.7451 43.5098ZM20.0391 43.4072V43.5098C20.0391 43.7344 20.0553 43.9427 20.0879 44.1348C20.1237 44.3236 20.179 44.4896 20.2539 44.6328C20.332 44.7728 20.4329 44.8835 20.5566 44.9648C20.6803 45.043 20.8317 45.082 21.0107 45.082C21.2354 45.082 21.4176 45.0462 21.5576 44.9746C21.6976 44.8997 21.8034 44.7988 21.875 44.6719C21.9499 44.5417 21.9938 44.3903 22.0068 44.2178V42.5967C21.9971 42.4046 21.9564 42.237 21.8848 42.0938C21.8132 41.9505 21.7074 41.8382 21.5674 41.7568C21.4274 41.6755 21.2451 41.6348 21.0205 41.6348C20.8415 41.6348 20.6885 41.682 20.5615 41.7764C20.4378 41.8675 20.3369 41.9945 20.2588 42.1572C20.1839 42.32 20.1286 42.5088 20.0928 42.7236C20.057 42.9385 20.0391 43.1663 20.0391 43.4072ZM21.3623 48.0312V38.5H22.6611V48.0312H21.3623ZM27.5684 44.1592L29.4922 40.7168H30.7861V46H29.4922V42.5527L27.5684 46H26.2744V40.7168H27.5684V44.1592ZM35.5078 40.7168V41.7373H32.9199V40.7168H35.5078ZM36.4795 40.7168V46H35.1904V40.7168H36.4795ZM32.5977 40.7168H33.8721L33.7305 43.3535C33.7077 43.7409 33.667 44.0811 33.6084 44.374C33.5498 44.6637 33.4717 44.9128 33.374 45.1211C33.2764 45.3262 33.1576 45.4938 33.0176 45.624C32.8776 45.7542 32.7148 45.8503 32.5293 45.9121C32.347 45.9707 32.1419 46 31.9141 46H31.5186L31.5039 44.96L31.6895 44.9453C31.8034 44.9355 31.901 44.9046 31.9824 44.8525C32.0671 44.8005 32.1387 44.7256 32.1973 44.6279C32.2591 44.5303 32.3096 44.4049 32.3486 44.252C32.391 44.0957 32.4235 43.9134 32.4463 43.7051C32.4723 43.4935 32.4902 43.2493 32.5 42.9727L32.5977 40.7168ZM38.5791 42.3428H40.1221C40.5908 42.3428 40.9896 42.4209 41.3184 42.5771C41.6504 42.7301 41.9027 42.945 42.0752 43.2217C42.251 43.4951 42.3389 43.8125 42.3389 44.1738C42.3389 44.4342 42.2884 44.6768 42.1875 44.9014C42.0898 45.1227 41.9466 45.3164 41.7578 45.4824C41.569 45.6452 41.3363 45.7721 41.0596 45.8633C40.7861 45.9544 40.4736 46 40.1221 46H37.749V40.7168H39.043V44.9893H40.1221C40.3467 44.9893 40.5257 44.9518 40.6592 44.877C40.7959 44.7988 40.8936 44.6995 40.9521 44.5791C41.014 44.4554 41.0449 44.3236 41.0449 44.1836C41.0449 44.0404 41.014 43.9069 40.9521 43.7832C40.8936 43.6562 40.7959 43.5537 40.6592 43.4756C40.5257 43.3975 40.3467 43.3584 40.1221 43.3584H38.5791V42.3428Z" fill="#807E81"/>
</svg>
