<svg width="43" height="60" viewBox="0 0 43 60" fill="none" xmlns="http://www.w3.org/2000/svg">
<path fill-rule="evenodd" clip-rule="evenodd" d="M16.75 18.25V18.1301C16.75 15.9624 18.2176 14.0696 20.3171 13.5298C21.0931 13.3302 21.907 13.3302 22.683 13.5298C24.7824 14.0696 26.25 15.9624 26.25 18.1301V18.25H27.7511C28.3224 18.25 28.8073 18.669 28.8901 19.2342L29.1088 20.7267C29.5393 23.6651 29.5393 26.6507 29.1088 29.5891C28.9008 31.0081 27.7565 32.1052 26.33 32.2531L25.7011 32.3183C22.9079 32.608 20.0921 32.608 17.2989 32.3183L16.67 32.2531C15.2435 32.1052 14.0992 31.0081 13.8913 29.5891C13.4607 26.6507 13.4607 23.6651 13.8913 20.7267L14.1099 19.2342C14.1928 18.669 14.6776 18.25 15.2489 18.25H16.75ZM20.6906 14.9825C21.2216 14.846 21.7784 14.846 22.3094 14.9825C23.7459 15.3519 24.75 16.6469 24.75 18.1301V18.25H18.25V18.1301C18.25 16.6469 19.2542 15.3519 20.6906 14.9825ZM16.75 19.75V22C16.75 22.4142 17.0858 22.75 17.5 22.75C17.9142 22.75 18.25 22.4142 18.25 22V19.75H24.75V22C24.75 22.4142 25.0858 22.75 25.5 22.75C25.9142 22.75 26.25 22.4142 26.25 22V19.75H27.4496L27.6246 20.9441C28.034 23.7384 28.034 26.5774 27.6246 29.3717C27.5162 30.1118 26.9193 30.684 26.1753 30.7611L25.5464 30.8264C22.856 31.1054 20.144 31.1054 17.4536 30.8264L16.8247 30.7611C16.0807 30.684 15.4839 30.1118 15.3754 29.3717C14.966 26.5774 14.966 23.7384 15.3754 20.9441L15.5504 19.75H16.75Z" fill="#807E81"/>
<path d="M3.53613 38.8906V46H2.19336V38.8906H3.53613ZM7.76953 38.8906L4.96191 43.002H3.19922L3.02344 41.8203H4.23438L6.13379 38.8906H7.76953ZM6.3877 46L4.24414 42.7871L5.14746 41.7959L7.99414 46H6.3877ZM8.16992 43.4121V43.3096C8.16992 42.9222 8.22526 42.5658 8.33594 42.2402C8.44661 41.9115 8.60775 41.6266 8.81934 41.3857C9.03092 41.1449 9.28971 40.9577 9.5957 40.8242C9.90169 40.6875 10.25 40.6191 10.6406 40.6191C11.0378 40.6191 11.3893 40.6875 11.6953 40.8242C12.0046 40.9577 12.265 41.1449 12.4766 41.3857C12.6882 41.6266 12.8493 41.9115 12.96 42.2402C13.0706 42.5658 13.126 42.9222 13.126 43.3096V43.4121C13.126 43.7962 13.0706 44.1527 12.96 44.4814C12.8493 44.807 12.6882 45.0918 12.4766 45.3359C12.265 45.5768 12.0062 45.764 11.7002 45.8975C11.3942 46.0309 11.0443 46.0977 10.6504 46.0977C10.2598 46.0977 9.90983 46.0309 9.60059 45.8975C9.29134 45.764 9.03092 45.5768 8.81934 45.3359C8.60775 45.0918 8.44661 44.807 8.33594 44.4814C8.22526 44.1527 8.16992 43.7962 8.16992 43.4121ZM9.45898 43.3096V43.4121C9.45898 43.6432 9.48177 43.8597 9.52734 44.0615C9.57292 44.2633 9.6429 44.4408 9.7373 44.5938C9.83171 44.7467 9.95378 44.8672 10.1035 44.9551C10.2565 45.0397 10.4388 45.082 10.6504 45.082C10.8587 45.082 11.0378 45.0397 11.1875 44.9551C11.3372 44.8672 11.4593 44.7467 11.5537 44.5938C11.6514 44.4408 11.723 44.2633 11.7686 44.0615C11.8141 43.8597 11.8369 43.6432 11.8369 43.4121V43.3096C11.8369 43.0817 11.8141 42.8685 11.7686 42.6699C11.723 42.4681 11.6514 42.2907 11.5537 42.1377C11.4593 41.9814 11.3356 41.8594 11.1826 41.7715C11.0329 41.6803 10.8522 41.6348 10.6406 41.6348C10.4323 41.6348 10.2533 41.6803 10.1035 41.7715C9.95378 41.8594 9.83171 41.9814 9.7373 42.1377C9.6429 42.2907 9.57292 42.4681 9.52734 42.6699C9.48177 42.8685 9.45898 43.0817 9.45898 43.3096ZM15.3525 41.7324V48.0312H14.0586V40.7168H15.2549L15.3525 41.7324ZM18.7461 43.3047V43.4072C18.7461 43.7913 18.7005 44.1478 18.6094 44.4766C18.5215 44.8021 18.3913 45.0869 18.2188 45.3311C18.0462 45.5719 17.8314 45.7607 17.5742 45.8975C17.3203 46.0309 17.0273 46.0977 16.6953 46.0977C16.3698 46.0977 16.0866 46.0358 15.8457 45.9121C15.6048 45.7852 15.4014 45.6061 15.2354 45.375C15.0693 45.1439 14.9359 44.8753 14.835 44.5693C14.7373 44.2601 14.6641 43.9232 14.6152 43.5586V43.2314C14.6641 42.8441 14.7373 42.4925 14.835 42.1768C14.9359 41.8577 15.0693 41.5827 15.2354 41.3516C15.4014 41.1172 15.6032 40.9365 15.8408 40.8096C16.0817 40.6826 16.3633 40.6191 16.6855 40.6191C17.0208 40.6191 17.3154 40.6826 17.5693 40.8096C17.8265 40.9365 18.043 41.1188 18.2188 41.3564C18.3945 41.5941 18.5264 41.8773 18.6143 42.2061C18.7021 42.5348 18.7461 42.901 18.7461 43.3047ZM17.4521 43.4072V43.3047C17.4521 43.0703 17.431 42.8538 17.3887 42.6553C17.3464 42.4535 17.2812 42.2777 17.1934 42.1279C17.1055 41.9749 16.9915 41.8561 16.8516 41.7715C16.7116 41.6868 16.5423 41.6445 16.3438 41.6445C16.1452 41.6445 15.9743 41.6771 15.8311 41.7422C15.6878 41.8073 15.5706 41.9001 15.4795 42.0205C15.3883 42.141 15.3167 42.2842 15.2646 42.4502C15.2158 42.613 15.1833 42.7936 15.167 42.9922V43.8027C15.1963 44.0436 15.2533 44.2601 15.3379 44.4521C15.4225 44.6442 15.5462 44.7972 15.709 44.9111C15.875 45.0251 16.0898 45.082 16.3535 45.082C16.5521 45.082 16.7214 45.0381 16.8613 44.9502C17.0013 44.8623 17.1152 44.7419 17.2031 44.5889C17.291 44.4326 17.3545 44.2536 17.3936 44.0518C17.4326 43.8499 17.4521 43.6351 17.4521 43.4072ZM21.9541 43.4805H20.9238V42.8652H21.71C21.902 42.8652 22.055 42.8392 22.1689 42.7871C22.2861 42.735 22.3691 42.6618 22.418 42.5674C22.4701 42.473 22.4961 42.3639 22.4961 42.2402C22.4961 42.1296 22.4717 42.0254 22.4229 41.9277C22.374 41.8268 22.2926 41.7454 22.1787 41.6836C22.0648 41.6185 21.9069 41.5859 21.7051 41.5859C21.5391 41.5859 21.391 41.612 21.2607 41.6641C21.1305 41.7161 21.028 41.7894 20.9531 41.8838C20.8783 41.9782 20.8408 42.0905 20.8408 42.2207H19.5469C19.5469 41.8887 19.6413 41.6038 19.8301 41.3662C20.0221 41.1286 20.2777 40.9463 20.5967 40.8193C20.9157 40.6891 21.2656 40.624 21.6465 40.624C21.9753 40.624 22.2715 40.6582 22.5352 40.7266C22.7988 40.7917 23.0234 40.8893 23.209 41.0195C23.3945 41.1497 23.5378 41.3109 23.6387 41.5029C23.7396 41.6917 23.79 41.9115 23.79 42.1621C23.79 42.3411 23.7477 42.5104 23.6631 42.6699C23.5785 42.8294 23.4564 42.971 23.2969 43.0947C23.1374 43.2152 22.9437 43.3096 22.7158 43.3779C22.4912 43.4463 22.2373 43.4805 21.9541 43.4805ZM20.9238 43.1289H21.9541C22.2699 43.1289 22.5465 43.1598 22.7842 43.2217C23.0251 43.2803 23.2269 43.3682 23.3896 43.4854C23.5524 43.6025 23.6745 43.7474 23.7559 43.9199C23.8405 44.0892 23.8828 44.2845 23.8828 44.5059C23.8828 44.7565 23.8275 44.9811 23.7168 45.1797C23.6094 45.375 23.4564 45.541 23.2578 45.6777C23.0592 45.8145 22.8232 45.9186 22.5498 45.9902C22.2764 46.0618 21.9753 46.0977 21.6465 46.0977C21.2917 46.0977 20.9466 46.0391 20.6113 45.9219C20.2793 45.8047 20.0042 45.624 19.7861 45.3799C19.5713 45.1357 19.4639 44.8216 19.4639 44.4375H20.7578C20.7578 44.5612 20.7952 44.6768 20.8701 44.7842C20.945 44.8916 21.0524 44.9779 21.1924 45.043C21.3356 45.1048 21.5081 45.1357 21.71 45.1357C21.915 45.1357 22.0827 45.1032 22.2129 45.0381C22.3431 44.973 22.4375 44.8867 22.4961 44.7793C22.5579 44.6686 22.5889 44.5531 22.5889 44.4326C22.5889 44.2666 22.5563 44.1331 22.4912 44.0322C22.4294 43.9281 22.3317 43.8516 22.1982 43.8027C22.068 43.7539 21.9053 43.7295 21.71 43.7295H20.9238V43.1289ZM26.1191 44.1592L28.043 40.7168H29.3369V46H28.043V42.5527L26.1191 46H24.8252V40.7168H26.1191V44.1592ZM34.1172 42.8848V43.8955H31.4072V42.8848H34.1172ZM31.8125 40.7168V46H30.5186V40.7168H31.8125ZM35.0205 40.7168V46H33.7217V40.7168H35.0205ZM39.1025 44.877V42.4404C39.1025 42.2614 39.0716 42.1068 39.0098 41.9766C38.9479 41.8464 38.8535 41.7454 38.7266 41.6738C38.5996 41.6022 38.4385 41.5664 38.2432 41.5664C38.0706 41.5664 37.9193 41.5957 37.7891 41.6543C37.6621 41.7129 37.5645 41.7959 37.4961 41.9033C37.4277 42.0075 37.3936 42.1279 37.3936 42.2646H36.0996C36.0996 42.0465 36.1517 41.8398 36.2559 41.6445C36.36 41.446 36.5081 41.2702 36.7002 41.1172C36.8955 40.9609 37.1283 40.8389 37.3984 40.751C37.6719 40.6631 37.9779 40.6191 38.3164 40.6191C38.7168 40.6191 39.0732 40.6875 39.3857 40.8242C39.7015 40.9577 39.9489 41.1595 40.1279 41.4297C40.3102 41.6999 40.4014 42.04 40.4014 42.4502V44.7549C40.4014 45.0186 40.4176 45.2448 40.4502 45.4336C40.486 45.6191 40.5381 45.7803 40.6064 45.917V46H39.293C39.2311 45.8665 39.1839 45.6973 39.1514 45.4922C39.1188 45.2839 39.1025 45.0788 39.1025 44.877ZM39.2832 42.7822L39.293 43.5488H38.4775C38.2757 43.5488 38.0983 43.57 37.9453 43.6123C37.7923 43.6514 37.667 43.71 37.5693 43.7881C37.4717 43.863 37.3984 43.9541 37.3496 44.0615C37.3008 44.1657 37.2764 44.2845 37.2764 44.418C37.2764 44.5482 37.3057 44.6654 37.3643 44.7695C37.4261 44.8737 37.514 44.9567 37.6279 45.0186C37.7451 45.0771 37.8818 45.1064 38.0381 45.1064C38.266 45.1064 38.4645 45.0609 38.6338 44.9697C38.8031 44.8753 38.9349 44.7614 39.0293 44.6279C39.1237 44.4945 39.1742 44.3675 39.1807 44.2471L39.5518 44.8037C39.5062 44.9372 39.4378 45.0788 39.3467 45.2285C39.2555 45.3783 39.1383 45.5182 38.9951 45.6484C38.8519 45.7786 38.6794 45.8861 38.4775 45.9707C38.2757 46.0553 38.0413 46.0977 37.7744 46.0977C37.4326 46.0977 37.1266 46.0293 36.8564 45.8926C36.5863 45.7559 36.373 45.5687 36.2168 45.3311C36.0605 45.0934 35.9824 44.8232 35.9824 44.5205C35.9824 44.2406 36.0345 43.9932 36.1387 43.7783C36.2428 43.5635 36.3975 43.3828 36.6025 43.2363C36.8076 43.0866 37.0615 42.9743 37.3643 42.8994C37.6702 42.8213 38.0202 42.7822 38.4141 42.7822H39.2832Z" fill="#807E81"/>
</svg>
